<svg xmlns="http://www.w3.org/2000/svg" viewBox="0 0 32 32">
  <rect width="32" height="32" rx="4" fill="#0a0a0f"/>
  <rect x="1" y="1" width="30" height="30" rx="3" fill="none" stroke="#00ff88" stroke-width="0.75" opacity="0.4"/>
  <!-- B letterform — centered (y 7..25, x 9..22) -->
  <path d="M9 7h8c2.4 0 4.2 1.6 4.2 3.8 0 1.5-.9 2.8-2.3 3.4v.2c1.8.5 3 1.9 3 3.6 0 2.5-2 4.4-4.6 4.4H9V7z M12.5 9.8v3.8h3.2c1.3 0 2.2-.8 2.2-1.9s-.9-1.9-2.2-1.9h-3.2z M12.5 16.4v3.8h3.8c1.5 0 2.5-1 2.5-2.2 0-1-1-1.6-2.5-1.6h-3.8z" fill="#00ff88"/>
  <!-- Scanline effect -->
  <line x1="0" y1="11" x2="32" y2="11" stroke="#00ff88" stroke-width="0.3" opacity="0.15"/>
  <line x1="0" y1="21" x2="32" y2="21" stroke="#00ff88" stroke-width="0.3" opacity="0.15"/>
</svg>
